<?xml version="1.0" encoding="utf-8"?>
<svg width="15px" height="20px" viewBox="0 0 15 20" version="1.1" xmlns:xlink="http://www.w3.org/1999/xlink" xmlns="http://www.w3.org/2000/svg">
  <desc>Created with Lunacy</desc>
  <path d="M13.75 15.8182L14.2857 15.8182C14.6808 15.8182 15 16.1432 15 16.5455L15 17.2727C15 17.3727 14.9196 17.4545 14.8214 17.4545L10 17.4545C10 18.8591 8.87946 20 7.5 20C6.12054 20 5 18.8591 5 17.4545L0.178571 17.4545C0.0803571 17.4545 0 17.3727 0 17.2727L0 16.5455C0 16.1432 0.319196 15.8182 0.714286 15.8182L1.25 15.8182L1.25 8.09091C1.25 4.88409 3.57813 2.23409 6.60714 1.79318L6.60714 0.909091C6.60714 0.406818 7.0067 0 7.5 0C7.9933 0 8.39286 0.406818 8.39286 0.909091L8.39286 1.79318C11.4219 2.23409 13.75 4.88409 13.75 8.09091L13.75 15.8182ZM2.85714 8.09091L2.85714 15.8182L12.1429 15.8182L12.1429 8.09091C12.1429 6.82727 11.6607 5.64091 10.7835 4.74773C9.90625 3.85455 8.74107 3.36364 7.5 3.36364C6.25893 3.36364 5.09375 3.85455 4.21652 4.74773C3.33929 5.64091 2.85714 6.82727 2.85714 8.09091ZM7.5 18.5455C6.90848 18.5455 6.42857 18.0568 6.42857 17.4545L8.57143 17.4545C8.57143 18.0568 8.09152 18.5455 7.5 18.5455Z" id="Shape" fill="#ADB4BE" fill-rule="evenodd" stroke="none" />
</svg>