<?xml version="1.0" encoding="utf-8"?>
<svg width="12px" height="12px" viewBox="0 0 12 12" version="1.1" xmlns:xlink="http://www.w3.org/1999/xlink" xmlns="http://www.w3.org/2000/svg">
  <desc>Created with Lunacy</desc>
  <g id="放大镜">
    <g id="Group">
      <path d="M3.58483 10.5194C4.27355 10.7847 5.00115 10.9192 5.74745 10.9192C6.49374 10.9192 7.22136 10.7847 7.91006 10.5193C8.62333 10.2446 9.26313 9.84105 9.81171 9.31999C10.3604 8.79894 10.7853 8.19118 11.0747 7.51367C11.3541 6.85944 11.4957 6.16828 11.4957 5.45938C11.4957 4.75049 11.3541 4.05936 11.0747 3.40521C10.7853 2.72774 10.3604 2.12011 9.81177 1.59929C9.26317 1.07811 8.6234 0.674548 7.91024 0.399795C7.22166 0.13452 6.49408 0 5.74776 0C5.00149 0 4.27384 0.134534 3.58498 0.399907C2.87164 0.674702 2.23179 1.07821 1.68314 1.59928C1.13475 2.12022 0.710064 2.72785 0.42087 3.4053C0.141641 4.05943 2.94944e-05 4.75053 0 5.45938C-4.42157e-05 6.16827 0.141523 6.85941 0.420737 7.5136C0.709916 8.19114 1.13466 8.79887 1.68317 9.31998C2.23178 9.84106 2.87158 10.2446 3.58483 10.5194ZM2.2879 2.17367C3.21226 1.29579 4.44099 0.812317 5.74778 0.812317L5.74779 0.812331C7.05444 0.812331 8.28293 1.29579 9.20708 2.17374C10.1315 3.05125 10.6405 4.21812 10.6405 5.45938C10.6405 6.70068 10.1314 7.8677 9.20702 8.74556C8.28281 9.62341 7.0542 10.1068 5.74747 10.1068C4.44074 10.1068 3.21212 9.62341 2.28795 8.74559C0.380639 6.93359 0.380624 3.98544 2.2879 2.17367Z" transform="translate(0.001267803 0.001372229)" id="Shape" fill="#9AA0AA" fill-rule="evenodd" stroke="none" />
      <path d="M2.79618 3.06206C2.68673 3.06206 2.5773 3.02239 2.4938 2.94308L0.125248 0.693368C-0.0417494 0.534749 -0.0417494 0.277582 0.125248 0.118964C0.292246 -0.0396546 0.562998 -0.0396546 0.729995 0.118964L3.09855 2.36868C3.26555 2.5273 3.26555 2.78446 3.09855 2.94308C3.01505 3.02239 2.90562 3.06206 2.79618 3.06206L2.79618 3.06206Z" transform="translate(8.774727 8.930884)" id="Path" fill="#9AA0AA" stroke="none" />
    </g>
  </g>
</svg>